<?xml version="1.0" encoding="UTF-8"?>
<svg id="Layer_1" data-name="Layer 1" xmlns="http://www.w3.org/2000/svg" viewBox="0 0 576 576">
  <defs>
    <style>
      .cls-1 {
        fill: #ec1c24;
      }

      .cls-1, .cls-2, .cls-3, .cls-4, .cls-5, .cls-6, .cls-7, .cls-8 {
        stroke-miterlimit: 10;
      }

      .cls-1, .cls-2, .cls-3, .cls-4, .cls-5, .cls-6, .cls-8 {
        stroke: #231f20;
      }

      .cls-2 {
        stroke-width: 3px;
      }

      .cls-2, .cls-3, .cls-4, .cls-9, .cls-7 {
        fill: #fff;
      }

      .cls-3 {
        stroke-width: 2px;
      }

      .cls-5 {
        stroke-width: .5px;
      }

      .cls-5, .cls-6, .cls-8 {
        fill: #060808;
      }

      .cls-7 {
        stroke: #060808;
      }

      .cls-7, .cls-8 {
        stroke-width: .75px;
      }

      .cls-10 {
        fill: #f6d912;
      }
    </style>
  </defs>
  <path class="cls-2" d="M210.79,88c32.46-29.59,91.95-29.03,123.27,1.16,19.23,18.53,27.12,47.62,14.94,70.73-9.71,18.43-31.26,34.06-28.08,54.21,21.52.91,43.7,1.96,63.09,10.37,19.39,8.41,35.49,26.14,33.91,45.65-1.17,14.45-11.6,30.98-24.81,39.19-13.21,8.21-28.27,16.31-43.74,19.96,30.83,24.9,55.41,47.85,73.32,81.62,6.11,11.52,11.5,24.09,7.3,37.05-1.95,6.02-6.28,11.34-12.47,14.13-14.4,6.5-27.04-3.92-40.95-6.4-26.47-4.7-50.33,19.56-77.31,18.5-19.88-.78-39.74-15.24-57.82-7.57-19.74,8.38-20.86,37.42-46.55,39.84-12.24,1.15-23.8-4.94-29.86-14.61-12.7-20.24-3.78-42.81,7.78-61.73,9.6-15.71,21.36-30.86,25.41-48.41,5.6-24.28-4.59-49.4-19.3-70.17-14.71-20.77-33.9-38.64-49.26-59.02-15.36-20.38-27.04-44.68-23.72-69.29.03-.25.07-.49.1-.74,2.81-20.2,34.17-36.52,42.18-17.57,2.88,6.82,6.18,26.29,9.85,33.6,6.5,12.97,26.16,25.56,42.68,21.75,26.26-6.06,7.45-21.6-.82-34.44-19.48-30.25-17.4-72.06,10.85-97.82Z"/>
  <polygon class="cls-3" points="324.82 145.78 280.78 141.61 283.13 119.67 327.16 123.83 324.82 145.78"/>
  <polygon class="cls-3" points="259.36 139.93 214.31 133.04 218.66 111.6 263.71 118.49 259.36 139.93"/>
  <path class="cls-5" d="M249.69,130.84l-22.39-1.8c-2.43-.2-4.17-2.22-3.89-4.53h0c.28-2.3,2.48-4.01,4.91-3.82l22.39,1.8c2.43.2,4.17,2.22,3.89,4.53h0c-.28,2.3-2.48,4.01-4.91,3.82Z"/>
  <path class="cls-5" d="M313.3,139.32l-22.39-1.8c-2.43-.2-4.17-2.22-3.89-4.53h0c.28-2.3,2.48-4.01,4.91-3.82l22.39,1.8c2.43.2,4.17,2.22,3.89,4.53h0c-.28,2.3-2.48,4.01-4.91,3.82Z"/>
  <polygon class="cls-4" points="215.52 125.94 193.02 113.73 196.29 103.81 218.86 115.83 215.52 125.94"/>
  <polygon class="cls-4" points="325.75 140.9 353.9 134.6 354.07 124.29 325.93 130.4 325.75 140.9"/>
  <polygon class="cls-7" points="279.87 134.44 260.92 132.47 263.03 126.98 280.43 128.79 279.87 134.44"/>
  <path class="cls-8" d="M287.2,184.61c-.96,13.32-11.91,23.76-24.46,23.32-12.55-.44-21.95-11.6-20.98-24.92.96-13.32,11.91-23.76,24.46-23.32,12.55.44,21.95,11.6,20.98,24.92Z"/>
  <path class="cls-8" d="M316.65,99.65c-5.36-4.26-12.79-6.77-19.87-5.62-7.08,1.15-13.39,6.47-13.9,12.84,2.56.5,2.98-1.99,5.54-1.49.37-1.03.5-2.4.88-3.43,7.18-2.98,18.26.45,25.37,3.56,1.59,4.86,6.83,9.86,12.36,9.16-1.31-5.59-5.55-11.19-10.38-15.02Z"/>
  <path class="cls-8" d="M235.18,93.51c6.72-1.43,14.66-1.01,20.83,1.93s9.94,8.61,7.87,13.31c-2.59-.41-2-2.31-4.59-2.72.06-.84.49-1.86.55-2.71-5.53-4.27-17.25-5.13-25.14-5.04-3.43,2.99-10.32,4.99-15.22,2.84,3.46-3.6,9.66-6.32,15.7-7.61Z"/>
  <path class="cls-6" d="M319.49,291.92c4.06,3.21,53.31-26.35,36.24-6.54-17.19,19.96-30.68,18.67-30.61,10.99"/>
  <g>
    <polygon class="cls-1" points="332.46 348.73 293.83 352.31 280.57 285.31 331.57 280.58 332.46 348.73"/>
    <polygon class="cls-9" points="309.87 350.46 303.75 351.44 291.89 286.15 298.01 285.17 309.87 350.46"/>
    <polygon class="cls-9" points="332.96 346.69 326.84 347.68 314.97 282.39 321.1 281.4 332.96 346.69"/>
  </g>
  <path class="cls-10" d="M329.98,280.23c-.41-3.4,8.01.93,4.52-.06-3.49-.99-1.72-8.33.02-5.36,3.09.02-10.93-7.88-12.66-10.23-1.73-2.35-6.06,3.56-9.06,2.94-.39,1.08,9.44-4.01,9.06-2.94-2.9.09-26.56,1.69-25.65-.9-2.6,1.45,5.38,3.7,2.41,3.48-.17,1.71-.33,3.43-.5,5.14.17-3.03.34-6.07.51-9.1-4.25-.39-8.64,2.66-9.5,6.6-3.91-2.06-6.23,14.09-10.71,14.88-4.92,19.37,54.43-5.35,51.58-4.45Z"/>
</svg>