<?xml version="1.0" encoding="UTF-8"?>
<svg id="Layer_1" data-name="Layer 1" xmlns="http://www.w3.org/2000/svg" xmlns:xlink="http://www.w3.org/1999/xlink" viewBox="0 0 576 576">
  <defs>
    <style>
      .cls-1, .cls-2, .cls-3, .cls-4, .cls-5, .cls-6, .cls-7, .cls-8, .cls-9, .cls-10, .cls-11, .cls-12 {
        stroke-miterlimit: 10;
      }

      .cls-1, .cls-2, .cls-7, .cls-8, .cls-11, .cls-12 {
        stroke: #231f20;
      }

      .cls-1, .cls-7, .cls-11 {
        fill: #070909;
      }

      .cls-13 {
        fill: #f7da14;
      }

      .cls-14 {
        fill: #5d292f;
      }

      .cls-15 {
        letter-spacing: .03em;
      }

      .cls-15, .cls-16 {
        font-size: 50px;
      }

      .cls-17, .cls-2, .cls-4, .cls-6, .cls-10, .cls-12 {
        fill: #fff;
      }

      .cls-3 {
        fill: none;
      }

      .cls-3, .cls-9 {
        stroke: #b89534;
        stroke-width: 5px;
      }

      .cls-18, .cls-9 {
        fill: url(#radial-gradient);
      }

      .cls-4 {
        stroke: #070909;
      }

      .cls-4, .cls-5, .cls-7 {
        stroke-width: .75px;
      }

      .cls-5 {
        fill: #6f272d;
        stroke: #fff;
      }

      .cls-6, .cls-10 {
        font-family: Elephant-Regular, Elephant;
        stroke: #ed1e24;
      }

      .cls-6, .cls-10, .cls-11 {
        stroke-width: .5px;
      }

      .cls-8 {
        fill: #ed1e24;
      }

      .cls-10 {
        font-size: 48px;
        letter-spacing: .03em;
      }

      .cls-12 {
        stroke-width: 2px;
      }

      .cls-16 {
        letter-spacing: .03em;
      }

      .cls-19 {
        fill: #b89534;
      }

      .cls-20 {
        clip-path: url(#clippath);
      }

      .cls-21 {
        font-size: 36px;
        letter-spacing: .03em;
      }
    </style>
    <radialGradient id="radial-gradient" cx="288.34" cy="312.55" fx="288.34" fy="312.55" r="239.04" gradientUnits="userSpaceOnUse">
      <stop offset="0" stop-color="#414042"/>
      <stop offset="1" stop-color="#231f20"/>
    </radialGradient>
    <clipPath id="clippath">
      <rect class="cls-9" x="11.84" y="118.05" width="553" height="389" rx="31.29" ry="31.29"/>
    </clipPath>
  </defs>
  <g>
    <rect class="cls-18" x="11.84" y="118.05" width="553" height="389" rx="31.29" ry="31.29"/>
    <g class="cls-20">
      <path class="cls-5" d="M564.74,507.05c-1.21-127.4.93-261.41-.29-388.81-26.24,11.12-37.66,24.59-56.27,46.17-18.62,21.58-24.75,51.51-23.34,79.97,1.62,32.54,10.05,62.5,27.68,89.9-35.63,47.49-48.99,113.57-44.5,172.77"/>
      <path class="cls-5" d="M14.17,506.95c1.21-127.4-.93-261.41.29-388.81,26.24,11.12,37.66,24.59,56.27,46.17,18.62,21.58,24.75,51.51,23.34,79.97-1.62,32.54-10.05,62.5-27.68,89.9,35.63,47.49,48.99,113.57,44.5,172.77"/>
      <path class="cls-14" d="M48.84,338c6.14-21.04,20.25-43.74,19.56-65.64-.61-19.54-2.05-42.71-7.06-61.61-3.1-11.72-11.74-35.08-17.37-45.8-4.71-8.97-19.72-38.89-27.07-45.74-.75,8.23,15.39,42.25,18.16,49.77,4.47,12.15,8.23,24.56,11.35,37.12,6.33,25.46,9.47,54.63,11.13,80.8.94,14.86-8.42,36.22-8.71,51.1Z"/>
      <path class="cls-14" d="M96.09,550.5c6.14-21.04,5.96-42.05,5.27-63.95-.61-19.54-5.31-40.58-10.31-59.48-3.1-11.72-11.74-35.08-17.37-45.8-4.71-8.97-15.29-36.42-22.64-43.27-.75,8.23,10.97,39.78,13.73,47.3,4.47,12.15,8.23,24.56,11.35,37.12,6.33,25.46,13.81,50.73,15.47,76.9.94,14.86,4.78,36.3,4.5,51.18Z"/>
      <path class="cls-14" d="M60.69,554.78c6.14-21.04,5.96-42.05,5.27-63.95-.61-19.54-5.31-40.58-10.31-59.48-3.1-11.72-11.74-35.08-17.37-45.8-4.71-8.97-15.29-36.42-22.64-43.27-.75,8.23,10.97,39.78,13.73,47.3,4.47,12.15,8.23,24.56,11.35,37.12,6.33,25.46,13.81,50.73,15.47,76.9.94,14.86,4.78,36.3,4.5,51.18Z"/>
      <path class="cls-14" d="M13.97,336.83c6.14-21.04,20.25-43.74,19.56-65.64-.61-19.54-2.05-42.71-7.06-61.61-3.1-11.72-11.74-35.08-17.37-45.8-4.71-8.97-19.72-38.89-27.07-45.74-.75,8.23,15.39,42.25,18.16,49.77,4.47,12.15,8.23,24.56,11.35,37.12,6.33,25.46,9.47,54.63,11.13,80.8.94,14.86-8.42,36.22-8.71,51.1Z"/>
      <path class="cls-14" d="M558.66,339.84c-6.14-21.04-20.25-43.74-19.56-65.64.61-19.54,2.05-42.71,7.06-61.61,3.1-11.72,11.74-35.08,17.37-45.8,4.71-8.97,19.72-38.89,27.07-45.74.75,8.23-15.39,42.25-18.16,49.77-4.47,12.15-8.23,24.56-11.35,37.12-6.33,25.46-9.47,54.63-11.13,80.8-.94,14.86,8.42,36.22,8.71,51.1Z"/>
      <path class="cls-14" d="M529.25,336.83c-6.14-21.04-20.25-43.74-19.56-65.64.61-19.54,2.05-42.71,7.06-61.61,3.1-11.72,11.74-35.08,17.37-45.8,4.71-8.97,19.72-38.89,27.07-45.74.75,8.23-15.39,42.25-18.16,49.77-4.47,12.15-8.23,24.56-11.35,37.12-6.33,25.46-9.47,54.63-11.13,80.8-.94,14.86,8.42,36.22,8.71,51.1Z"/>
      <path class="cls-14" d="M483.07,549.26c-6.14-21.04-5.96-42.05-5.27-63.95.61-19.54,5.31-40.58,10.31-59.48,3.1-11.72,11.74-35.08,17.37-45.8,4.71-8.97,15.29-36.42,22.64-43.27.75,8.23-10.97,39.78-13.73,47.3-4.47,12.15-8.23,24.56-11.35,37.12-6.33,25.46-13.81,50.73-15.47,76.9-.94,14.86-4.78,36.3-4.5,51.18Z"/>
      <path class="cls-14" d="M514.91,552.32c-6.14-21.04-5.96-42.05-5.27-63.95.61-19.54,5.31-40.58,10.31-59.48,3.1-11.72,11.74-35.08,17.37-45.8,4.71-8.97,15.29-36.42,22.64-43.27.75,8.23-10.97,39.78-13.73,47.3-4.47,12.15-8.23,24.56-11.35,37.12-6.33,25.46-13.81,50.73-15.47,76.9-.94,14.86-4.78,36.3-4.5,51.18Z"/>
      <rect class="cls-19" x="15.26" y="328.94" width="55.86" height="9.06" rx="2.69" ry="2.69"/>
      <rect class="cls-19" x="506.81" y="327.09" width="55.86" height="9.06" rx="2.69" ry="2.69"/>
      <path class="cls-2" d="M156.81,183.14c14.27-11.66,38.2-9.09,49.59,5.31,6.99,8.84,8.98,21.85,3.14,31.47-4.66,7.67-13.97,13.66-13.51,22.58,8.63,1.24,17.51,2.56,24.98,6.99,7.47,4.43,13.23,12.8,11.8,21.26-1.06,6.27-6.25,18.12-11.9,21.19s-8.01,3.24-14.39,4.23c11.4,12.07,16.65,20.8,22.49,36.24,1.99,5.27,3.65,10.97,1.43,16.46-1.03,2.55-2.99,4.71-5.6,5.69-6.06,2.28-10.73-2.77-16.23-4.39-10.47-3.09-21.06,6.58-31.88,5.06-7.97-1.12-15.38-8.21-22.97-5.56-8.29,2.89-9.92,15.53-20.36,15.58-4.97.02-9.38-3.09-11.43-7.55-4.29-9.33.22-18.84,5.64-26.65,4.5-6.48,9.85-12.64,12.2-20.15,3.24-10.38.16-21.75-4.92-31.39-5.08-9.65-12.08-18.19-17.44-27.7-5.36-9.5-9.07-20.57-6.73-31.18.02-.11.05-.21.07-.32,1.95-8.71,15.24-14.62,17.7-6.03.88,3.09,1.42,11.72,2.6,15.06,2.09,5.92,9.5,12.18,16.3,11.16,10.82-1.62,3.88-9.14,1.07-15.07-6.61-13.97-4.08-32.14,8.34-42.29Z"/>
      <path class="cls-1" d="M199.74,287.03c2.47,0,10.63-25.97,10.85-13.34.22,12.72-5,16.28-7.42,13.34"/>
      <polygon class="cls-8" points="204.09 313.37 185.99 313.37 183.1 279.74 206.98 279.74 204.09 313.37"/>
    </g>
    <rect class="cls-3" x="11.84" y="118.05" width="553" height="389" rx="31.29" ry="31.29"/>
  </g>
  <text class="cls-6" transform="translate(256.35 199.92)"><tspan class="cls-15"><tspan x="0" y="0">Picture </tspan></tspan><tspan class="cls-16"><tspan x="21.82" y="81.6">House</tspan></tspan><tspan class="cls-21"><tspan x="88.32" y="153.6">of</tspan></tspan></text>
  <text class="cls-10" transform="translate(125.4 446.07)"><tspan x="0" y="0">HORRORS!</tspan></text>
  <rect class="cls-17" x="187.44" y="279.74" width="2.89" height="32.8"/>
  <rect class="cls-17" x="198.12" y="279.33" width="3.26" height="33.63"/>
  <path class="cls-13" d="M205.34,279.41c-.28-1.55-1.15-3.19-2.68-3.59s1.39.84,2.23,2.18c1.33-.04-2.71-4.59-3.52-5.64s-2.49,1.73-3.8,1.5c-.13.5,3.93-2,3.8-1.5-1.24.09-11.34,1.2-11.04,0-1.07.71,2.42,1.61,1.14,1.56-.02.79-.04,1.58-.06,2.37-.02-1.4-.04-2.79-.06-4.19-1.83-.11-3.62,1.36-3.87,3.18-1.74-.88-2.48.31-4.38.74-1.51,8.97,23.43,2.92,22.24,3.39Z"/>
  <rect class="cls-12" x="154.16" y="199.92" width="20.62" height="8.81"/>
  <rect class="cls-12" x="183.03" y="199.92" width="20.62" height="8.81"/>
  <rect class="cls-11" x="156.69" y="202.58" width="14.11" height="3.98" rx="1.99" ry="1.99"/>
  <rect class="cls-11" x="186.29" y="202.58" width="14.11" height="3.98"/>
  <polygon class="cls-2" points="154.16 206.56 146.03 204.32 146.03 200.42 154.16 202.58 154.16 206.56"/>
  <polygon class="cls-2" points="203.66 205.65 211.78 203.41 211.78 199.51 203.66 201.67 203.66 205.65"/>
  <ellipse class="cls-7" cx="177.93" cy="228.01" rx="10.24" ry="11.47"/>
  <path class="cls-7" d="M161.27,188.23c2.3-1.28,5.17-1.69,7.59-.65s4.18,3.68,3.78,6.27c-.96,0-.88-1.04-1.84-1.04-.04-.44.04-1,0-1.45-2.29-1.77-6.54-1.29-9.36-.62-1.01,1.82-3.33,3.41-5.24,2.68.98-2.14,3-4.04,5.06-5.19Z"/>
  <path class="cls-7" d="M194.46,188.23c-2.3-1.28-5.17-1.69-7.59-.65s-4.18,3.68-3.78,6.27c.96,0,.88-1.04,1.84-1.04.04-.44-.04-1,0-1.45,2.29-1.77,6.54-1.29,9.36-.62,1.01,1.82,3.33,3.41,5.24,2.68-.98-2.14-3-4.04-5.06-5.19Z"/>
  <rect class="cls-4" x="174.78" y="203.52" width="8.26" height="3.04"/>
</svg>