<?xml version="1.0" encoding="UTF-8"?>
<svg id="Layer_1" data-name="Layer 1" xmlns="http://www.w3.org/2000/svg" xmlns:xlink="http://www.w3.org/1999/xlink" viewBox="0 0 576 576">
  <defs>
    <style>
      .cls-1 {
        letter-spacing: .04em;
      }

      .cls-1, .cls-2 {
        font-size: 36px;
      }

      .cls-3 {
        font-size: 18px;
      }

      .cls-3, .cls-2, .cls-4, .cls-5, .cls-6, .cls-7, .cls-8, .cls-9 {
        fill: #fff;
      }

      .cls-3, .cls-2, .cls-6 {
        font-family: Rockwell, Rockwell;
      }

      .cls-10 {
        letter-spacing: .05em;
      }

      .cls-11 {
        letter-spacing: -.04em;
      }

      .cls-12 {
        letter-spacing: -.03em;
      }

      .cls-13, .cls-2, .cls-4, .cls-6, .cls-7, .cls-14, .cls-15, .cls-8, .cls-16, .cls-17, .cls-18, .cls-19, .cls-20, .cls-9 {
        stroke-miterlimit: 10;
      }

      .cls-13, .cls-7, .cls-17, .cls-18, .cls-20, .cls-9 {
        stroke: #231f20;
      }

      .cls-13, .cls-17, .cls-20 {
        fill: #070909;
      }

      .cls-21 {
        letter-spacing: .06em;
      }

      .cls-22 {
        fill: #f7da14;
      }

      .cls-2, .cls-4, .cls-6, .cls-16 {
        stroke: #fff;
      }

      .cls-23 {
        fill: #5d292f;
      }

      .cls-24 {
        letter-spacing: .01em;
      }

      .cls-14 {
        fill: none;
      }

      .cls-14, .cls-19 {
        stroke: #b89534;
        stroke-width: 5px;
      }

      .cls-15 {
        stroke: #5d292f;
      }

      .cls-15, .cls-8, .cls-16, .cls-17 {
        stroke-width: .75px;
      }

      .cls-15, .cls-16 {
        fill: #6f272d;
      }

      .cls-25, .cls-19 {
        fill: url(#radial-gradient);
      }

      .cls-8 {
        stroke: #070909;
      }

      .cls-18 {
        fill: #ed1e24;
      }

      .cls-26 {
        letter-spacing: .02em;
      }

      .cls-26, .cls-27 {
        font-size: 40px;
      }

      .cls-28 {
        letter-spacing: -.02em;
      }

      .cls-20 {
        stroke-width: .5px;
      }

      .cls-27 {
        letter-spacing: .07em;
      }

      .cls-9 {
        stroke-width: 2px;
      }

      .cls-29 {
        fill: #b89534;
      }

      .cls-30 {
        clip-path: url(#clippath);
      }
    </style>
    <radialGradient id="radial-gradient" cx="288" cy="253.69" fx="288" fy="253.69" r="239.04" gradientUnits="userSpaceOnUse">
      <stop offset="0" stop-color="#414042"/>
      <stop offset=".4" stop-color="#383637"/>
      <stop offset="1" stop-color="#231f20"/>
    </radialGradient>
    <clipPath id="clippath">
      <rect class="cls-19" x="11.5" y="59.19" width="553" height="389" rx="31.29" ry="31.29"/>
    </clipPath>
  </defs>
  <g>
    <rect class="cls-25" x="11.5" y="59.19" width="553" height="389" rx="31.29" ry="31.29"/>
    <g class="cls-30">
      <path class="cls-7" d="M357.29,218.64c2.16-20.95,23.56-38.56,44.35-36.5,12.76,1.27,24.84,9.93,27.86,22.34,2.41,9.9-.3,22.29,7.25,28.97,7.97-6.1,16.22-12.35,25.81-14.98,9.6-2.62,20.99-.73,26.64,7.15,4.19,5.83,5.73,15.22,3.63,22.3-2.1,7.07-4.89,14.66-9.25,20.68,18.93.2,35.01,1.54,52.16,8.98,5.85,2.54,11.78,5.69,14.41,11.86,1.22,2.87,1.37,6.18.05,9.1-3.07,6.78-10.9,6.62-16.65,9.85-10.94,6.15-11.73,22.5-21.69,30.18-7.34,5.66-19.03,6.13-23.04,14.46-4.37,9.09,4.48,20.44-3.92,29.06-4,4.1-10.07,5.26-15.31,3.41-10.98-3.87-14.99-15.1-16.89-25.74-1.58-8.83-2.21-18.1-6.35-25.97-5.73-10.89-17.37-17.36-29.24-20.83-11.87-3.47-24.4-4.49-36.38-7.62-11.97-3.13-23.88-8.84-30.53-19.17-.07-.1-.13-.21-.2-.31-5.43-8.5.56-24.09,9.45-19.3,3.2,1.72,10.58,8.12,14.22,9.79,6.45,2.97,17.48,1.85,22.16-4.54,7.44-10.17-4.22-10.42-11.26-12.82-16.59-5.63-29.16-22.11-27.28-40.35Z"/>
      <path class="cls-16" d="M564.4,448.19c-1.21-127.4.93-261.41-.29-388.81-26.24,11.12-37.66,24.59-56.27,46.17-18.62,21.58-24.75,51.51-23.34,79.97,1.62,32.54,10.05,62.5,27.68,89.9-35.63,47.49-48.99,113.57-44.5,172.77"/>
      <path class="cls-16" d="M13.83,448.09c1.21-127.4-.93-261.41.29-388.81,26.24,11.12,37.66,24.59,56.27,46.17,18.62,21.58,24.75,51.51,23.34,79.97-1.62,32.54-10.05,62.5-27.68,89.9,35.63,47.49,48.99,113.57,44.5,172.77"/>
      <path class="cls-23" d="M48.5,279.14c6.14-21.04,20.25-43.74,19.56-65.64-.61-19.54-2.05-42.71-7.06-61.61-3.1-11.72-11.74-35.08-17.37-45.8-4.71-8.97-19.72-38.89-27.07-45.74-.75,8.23,15.39,42.25,18.16,49.77,4.47,12.15,8.23,24.56,11.35,37.12,6.33,25.46,9.47,54.63,11.13,80.8.94,14.86-8.42,36.22-8.71,51.1Z"/>
      <path class="cls-23" d="M95.74,491.64c6.14-21.04,5.96-42.05,5.27-63.95-.61-19.54-5.31-40.58-10.31-59.48-3.1-11.72-11.74-35.08-17.37-45.8-4.71-8.97-15.29-36.42-22.64-43.27-.75,8.23,10.97,39.78,13.73,47.3,4.47,12.15,8.23,24.56,11.35,37.12,6.33,25.46,13.81,50.73,15.47,76.9.94,14.86,4.78,36.3,4.5,51.18Z"/>
      <path class="cls-23" d="M60.35,495.92c6.14-21.04,5.96-42.05,5.27-63.95-.61-19.54-5.31-40.58-10.31-59.48-3.1-11.72-11.74-35.08-17.37-45.8-4.71-8.97-15.29-36.42-22.64-43.27-.75,8.23,10.97,39.78,13.73,47.3,4.47,12.15,8.23,24.56,11.35,37.12,6.33,25.46,13.81,50.73,15.47,76.9.94,14.86,4.78,36.3,4.5,51.18Z"/>
      <path class="cls-23" d="M13.63,277.98c6.14-21.04,20.25-43.74,19.56-65.64-.61-19.54-2.05-42.71-7.06-61.61-3.1-11.72-11.74-35.08-17.37-45.8-4.71-8.97-19.72-38.89-27.07-45.74-.75,8.23,15.39,42.25,18.16,49.77,4.47,12.15,8.23,24.56,11.35,37.12,6.33,25.46,9.47,54.63,11.13,80.8.94,14.86-8.42,36.22-8.71,51.1Z"/>
      <path class="cls-23" d="M558.32,280.98c-6.14-21.04-20.25-43.74-19.56-65.64.61-19.54,2.05-42.71,7.06-61.61,3.1-11.72,11.74-35.08,17.37-45.8,4.71-8.97,19.72-38.89,27.07-45.74.75,8.23-15.39,42.25-18.16,49.77-4.47,12.15-8.23,24.56-11.35,37.12-6.33,25.46-9.47,54.63-11.13,80.8-.94,14.86,8.42,36.22,8.71,51.1Z"/>
      <path class="cls-23" d="M528.9,277.98c-6.14-21.04-20.25-43.74-19.56-65.64.61-19.54,2.05-42.71,7.06-61.61,3.1-11.72,11.74-35.08,17.37-45.8,4.71-8.97,19.72-38.89,27.07-45.74.75,8.23-15.39,42.25-18.16,49.77-4.47,12.15-8.23,24.56-11.35,37.12-6.33,25.46-9.47,54.63-11.13,80.8-.94,14.86,8.42,36.22,8.71,51.1Z"/>
      <path class="cls-23" d="M482.72,490.4c-6.14-21.04-5.96-42.05-5.27-63.95.61-19.54,5.31-40.58,10.31-59.48,3.1-11.72,11.74-35.08,17.37-45.8,4.71-8.97,15.29-36.42,22.64-43.27.75,8.23-10.97,39.78-13.73,47.3-4.47,12.15-8.23,24.56-11.35,37.12-6.33,25.46-13.81,50.73-15.47,76.9-.94,14.86-4.78,36.3-4.5,51.18Z"/>
      <path class="cls-23" d="M514.57,493.46c-6.14-21.04-5.96-42.05-5.27-63.95.61-19.54,5.31-40.58,10.31-59.48,3.1-11.72,11.74-35.08,17.37-45.8,4.71-8.97,15.29-36.42,22.64-43.27.75,8.23-10.97,39.78-13.73,47.3-4.47,12.15-8.23,24.56-11.35,37.12-6.33,25.46-13.81,50.73-15.47,76.9-.94,14.86-4.78,36.3-4.5,51.18Z"/>
      <rect class="cls-29" x="14.92" y="270.08" width="55.86" height="9.06" rx="2.69" ry="2.69"/>
      <rect class="cls-29" x="506.46" y="268.23" width="55.86" height="9.06" rx="2.69" ry="2.69"/>
      <path class="cls-13" d="M461.23,257.93c2.47,0,10.63-25.97,10.85-13.34.22,12.72-5,16.28-7.42,13.34"/>
      <polygon class="cls-18" points="479.18 273.65 466.53 286.59 440.46 265.16 457.15 248.08 479.18 273.65"/>
    </g>
    <rect class="cls-14" x="11.5" y="59.19" width="553" height="389" rx="31.29" ry="31.29"/>
  </g>
  <text class="cls-6" transform="translate(120.18 113.95) scale(1.01 1)"><tspan class="cls-27" x="0" y="0">Pictu</tspan><tspan class="cls-26" x="103.04" y="0">r</tspan><tspan class="cls-27" x="120.33" y="0">e House </tspan><tspan class="cls-1" x="299.08" y="0">of</tspan></text>
  <text class="cls-2" transform="translate(190.23 166.02)"><tspan class="cls-21" x="0" y="0">HOR</tspan><tspan class="cls-10" x="83.12" y="0">R</tspan><tspan class="cls-21" x="106.48" y="0">ORS!</tspan></text>
  <rect class="cls-5" x="456.77" y="255.18" width="2.89" height="32.8" transform="translate(-45.19 445.65) rotate(-49.73)"/>
  <rect class="cls-5" x="463.81" y="246.84" width="2.89" height="32.8" transform="translate(-36.33 448.07) rotate(-49.73)"/>
  <path class="cls-22" d="M456.33,248.54c-1.2-1.1,3.08-1.94,1.56-1.3s-3.19-2.5-1.66-1.93c1.08-.87-6.27.27-7.6-.08s-1,3-2.24,3.63c.2.5,2.04-4.12,2.24-3.63-.98.86-8.74,8.15-9.23,6.96-.45,1.26,3.03-.2,1.92.56.48.66.95,1.33,1.43,1.99-.89-1.14-1.77-2.27-2.66-3.41-1.6,1.07-2.18,3.41-1.26,5.07-2.01.37,2.22,6.83.9,8.39,4.32,8.35,17.32-17.37,16.6-16.24Z"/>
  <rect class="cls-9" x="366.19" y="213.72" width="20.62" height="10.32" transform="translate(-59 217.58) rotate(-30)"/>
  <rect class="cls-9" x="391.02" y="198.41" width="20.62" height="10.92" transform="translate(-45.11 261.51) rotate(-34.29)"/>
  <rect class="cls-20" x="369.45" y="216.89" width="14.11" height="3.98" rx="1.99" ry="1.99" transform="translate(-57.88 250.13) rotate(-34.29)"/>
  <rect class="cls-20" x="394.27" y="201.88" width="14.11" height="3.98" rx="1.99" ry="1.99" transform="translate(-45.11 261.51) rotate(-34.29)"/>
  <polygon class="cls-7" points="368.39 225.6 357.97 227.11 356.01 222.62 366.38 221.03 368.39 225.6"/>
  <polygon class="cls-7" points="411.47 199.7 419.33 189.44 416.18 185.69 408.26 195.87 411.47 199.7"/>
  <polygon class="cls-8" points="393.22 210.29 386.21 215.07 385.26 212.45 391.7 208.06 393.22 210.29"/>
  <ellipse class="cls-17" cx="403.46" cy="232.5" rx="10.24" ry="11.47" transform="translate(-58.67 289.73) rotate(-37.01)"/>
  <path class="cls-17" d="M395.45,187.46c-3.2,0-6.57,1.2-8.68,3.62-2.11,2.42-2.66,6.12-.85,8.56,1.05-.55.42-1.56,1.47-2.11-.19-.48-.57-1.01-.76-1.48,1.58-3.11,6.51-5.02,9.95-5.92,2.07,1.3,5.45,1.6,7.16-.22-2.2-1.64-5.42-2.44-8.3-2.45Z"/>
  <path class="cls-17" d="M365.12,208.38c1.9-2.42,4.8-4.52,7.86-5.22s6.15.27,6.89,2.55c-1.03.59-1.42-.26-2.45.33-.24-.32-.41-.81-.65-1.13-3.26.04-7.62,3.05-10.34,5.33-.26,2.05-2.05,4.72-4.42,5.34.09-2.27,1.4-5.01,3.11-7.19Z"/>
  <rect class="cls-4" x="103.09" y="201.62" width="234.31" height="115.97" rx="18.1" ry="18.1"/>
  <g>
    <path class="cls-15" d="M111.8,242.15v-25.75h-4.22v-4.3h13.34v4.3h-4.01v25.75h9.98v-11.68h4.59v15.97h-23.91v-4.3h4.22Z"/>
    <path class="cls-15" d="M137.42,229.11c0-4.99,1.55-9.16,4.64-12.52s7.12-5.04,12.09-5.04,9.1,1.68,12.26,5.04,4.73,7.56,4.73,12.61-1.61,9.4-4.82,12.75-7.29,5.02-12.25,5.02c-3.16,0-6.06-.79-8.71-2.38s-4.64-3.8-5.96-6.64-1.99-5.79-1.99-8.85ZM142.78,229.14c0,3.77,1.05,6.93,3.14,9.48s4.84,3.83,8.25,3.83,6.15-1.3,8.32-3.91,3.26-5.72,3.26-9.34-1.11-6.74-3.32-9.27-4.99-3.79-8.33-3.79-6.05,1.24-8.16,3.73-3.16,5.58-3.16,9.28Z"/>
    <path class="cls-15" d="M186.22,242.15v-11.33l-9.7-14.42h-3.98v-4.3h13.41v4.3h-4.11l7.2,10.61,6.58-10.61h-4.09v-4.3h12.98v4.3h-4.31l-9.05,14.42v11.33h4.45v4.3h-13.76v-4.3h4.38Z"/>
    <path class="cls-15" d="M227.51,234.37h-11.75l-2.49,7.78h3.96v4.3h-12.84v-4.3h3.95l8.9-26.17h-3.94v-3.88h16.66v3.88h-4.08l9.12,26.17h3.65v4.3h-12.77v-4.3h4.05l-2.42-7.78ZM226.28,230.35l-4.34-14.37h-.45l-4.52,14.37h9.3Z"/>
    <path class="cls-15" d="M246.29,242.15v-25.75h-4.22v-4.3h13.34v4.3h-4.01v25.75h9.98v-11.68h4.59v15.97h-23.91v-4.3h4.22Z"/>
    <path class="cls-15" d="M280.84,242.15v-25.75h-6.73v8.76h-4.03v-13.06h26.41v13.06h-4.03v-8.76h-6.7v25.75h4.24v4.3h-13.34v-4.3h4.17Z"/>
    <path class="cls-15" d="M313.35,242.15v-11.33l-9.7-14.42h-3.98v-4.3h13.41v4.3h-4.11l7.2,10.61,6.58-10.61h-4.09v-4.3h12.98v4.3h-4.31l-9.05,14.42v11.33h4.45v4.3h-13.76v-4.3h4.38Z"/>
    <path class="cls-15" d="M177.9,293.14l4.24,2.49c-.95,3.82-2.88,6.78-5.78,8.87-2.9,2.1-6.23,3.15-10,3.15-4.94,0-8.9-1.69-11.88-5.06s-4.48-7.55-4.48-12.52c0-5.45,1.5-9.78,4.5-13.01,3-3.23,6.91-4.84,11.74-4.84,4.27,0,7.85,1.23,10.76,3.68v-3.14h4.22v11.03h-4.22c-.94-2.24-2.38-3.97-4.34-5.2s-4.01-1.84-6.16-1.84c-3.25,0-5.92,1.23-8,3.7s-3.13,5.59-3.13,9.36,1.12,7.03,3.35,9.48,4.88,3.68,7.95,3.68c2.52,0,4.8-.85,6.87-2.56s3.52-4.13,4.36-7.29Z"/>
    <path class="cls-15" d="M209.11,295.04h-11.75l-2.49,7.78h3.96v4.3h-12.84v-4.3h3.95l8.9-26.17h-3.94v-3.88h16.66v3.88h-4.08l9.12,26.17h3.65v4.3h-12.77v-4.3h4.05l-2.42-7.78ZM207.88,291.02l-4.34-14.37h-.45l-4.52,14.37h9.3Z"/>
    <path class="cls-15" d="M228.08,302.82v-25.75h-4.48v-4.3h13.24c2.77,0,4.96.23,6.59.68s2.97,1.41,4.03,2.86,1.59,3.27,1.59,5.44c0,4.54-2.24,7.4-6.72,8.57l5.76,12.49h3.98v4.3h-7.06l-7.42-16.05h-4.59v11.75h4.17v4.3h-13.57v-4.3h4.48ZM233,286.77h3.84c1.86,0,3.23-.13,4.11-.38s1.61-.77,2.17-1.56.84-1.83.84-3.15c0-1.12-.29-2.07-.86-2.84s-1.27-1.26-2.11-1.47-2.11-.31-3.83-.31h-4.17v9.7Z"/>
    <path class="cls-15" d="M260.15,302.82v-25.75h-4.43v-4.3h12.61c3.48,0,6.17.19,8.05.57s3.71,1.23,5.47,2.57,3.18,3.16,4.23,5.49,1.58,4.98,1.58,7.96c0,3.39-.51,6.34-1.52,8.84s-2.35,4.37-4,5.6-3.61,2.09-5.88,2.58-5.17.73-8.68.73h-11.86v-4.3h4.43ZM265.07,302.82h2.58c2.88,0,5.15-.19,6.83-.57s3.1-1.02,4.25-1.94,2.09-2.29,2.81-4.13,1.08-4.02,1.08-6.52c0-2.98-.59-5.5-1.77-7.58s-2.69-3.43-4.52-4.06-4.66-.95-8.47-.95h-2.79v25.75Z"/>
  </g>
  <path class="cls-7" d="M411.58,345.63c5.74-3.9,15.36-3.04,19.94,1.78,2.81,2.96,3.61,7.32,1.26,10.54-1.87,2.57-5.62,4.57-5.43,7.56,3.47.41,7.04.86,10.05,2.34s5.32,4.29,4.75,7.12c-.43,2.1-2.39,4.38-4.66,5.41-2.27,1.03-4.84,2.02-7.41,2.35,4.59,4.04,8.19,7.72,10.54,12.9.8,1.76,1.47,3.67.58,5.51-.41.85-1.2,1.58-2.25,1.9-2.44.76-4.31-.93-6.53-1.47-4.21-1.03-8.47,2.2-12.82,1.7-3.21-.37-6.19-2.75-9.24-1.86-3.33.97-3.99,5.2-8.19,5.22-2,0-3.77-1.03-4.6-2.53-1.73-3.13.09-6.31,2.27-8.93,1.81-2.17,3.96-4.23,4.91-6.75,1.3-3.48.06-7.28-1.98-10.52s-4.86-6.09-7.01-9.28-3.65-6.89-2.71-10.44c0-.04.02-.07.03-.11.79-2.92,6.13-4.9,7.12-2.02.36,1.04.57,3.93,1.05,5.04.84,1.98,3.82,4.08,6.56,3.74,4.35-.54,1.56-3.06.43-5.05-2.66-4.68-1.64-10.77,3.36-14.16Z"/>
  <path class="cls-7" d="M282.43,345.63c5.74-3.9,15.36-3.04,19.94,1.78,2.81,2.96,3.61,7.32,1.26,10.54-1.87,2.57-5.62,4.57-5.43,7.56,3.47.41,7.04.86,10.05,2.34s5.32,4.29,4.75,7.12c-.43,2.1-2.39,4.38-4.66,5.41-2.27,1.03-4.84,2.02-7.41,2.35,4.59,4.04,8.19,7.72,10.54,12.9.8,1.76,1.47,3.67.58,5.51-.41.85-1.2,1.58-2.25,1.9-2.44.76-4.31-.93-6.53-1.47-4.21-1.03-8.47,2.2-12.82,1.7-3.21-.37-6.19-2.75-9.24-1.86-3.33.97-3.99,5.2-8.19,5.22-2,0-3.77-1.03-4.6-2.53-1.73-3.13.09-6.31,2.27-8.93,1.81-2.17,3.96-4.23,4.91-6.75,1.3-3.48.06-7.28-1.98-10.52s-4.86-6.09-7.01-9.28-3.65-6.89-2.71-10.44c0-.04.02-.07.03-.11.79-2.92,6.13-4.9,7.12-2.02.36,1.04.57,3.93,1.05,5.04.84,1.98,3.82,4.08,6.56,3.74,4.35-.54,1.56-3.06.43-5.05-2.66-4.68-1.64-10.77,3.36-14.16Z"/>
  <path class="cls-7" d="M347,345.63c5.74-3.9,15.36-3.04,19.94,1.78,2.81,2.96,3.61,7.32,1.26,10.54-1.87,2.57-5.62,4.57-5.43,7.56,3.47.41,7.04.86,10.05,2.34s5.32,4.29,4.75,7.12c-.43,2.1-2.39,4.38-4.66,5.41-2.27,1.03-4.84,2.02-7.41,2.35,4.59,4.04,8.19,7.72,10.54,12.9.8,1.76,1.47,3.67.58,5.51-.41.85-1.2,1.58-2.25,1.9-2.44.76-4.31-.93-6.53-1.47-4.21-1.03-8.47,2.2-12.82,1.7-3.21-.37-6.19-2.75-9.24-1.86-3.33.97-3.99,5.2-8.19,5.22-2,0-3.77-1.03-4.6-2.53-1.73-3.13.09-6.31,2.27-8.93,1.81-2.17,3.96-4.23,4.91-6.75,1.3-3.48.06-7.28-1.98-10.52s-4.86-6.09-7.01-9.28-3.65-6.89-2.71-10.44c0-.04.02-.07.03-.11.79-2.92,6.13-4.9,7.12-2.02.36,1.04.57,3.93,1.05,5.04.84,1.98,3.82,4.08,6.56,3.74,4.35-.54,1.56-3.06.43-5.05-2.66-4.68-1.64-10.77,3.36-14.16Z"/>
  <path class="cls-7" d="M217.85,345.63c5.74-3.9,15.36-3.04,19.94,1.78,2.81,2.96,3.61,7.32,1.26,10.54-1.87,2.57-5.62,4.57-5.43,7.56,3.47.41,7.04.86,10.05,2.34s5.32,4.29,4.75,7.12c-.43,2.1-2.39,4.38-4.66,5.41-2.27,1.03-4.84,2.02-7.41,2.35,4.59,4.04,8.19,7.72,10.54,12.9.8,1.76,1.47,3.67.58,5.51-.41.85-1.2,1.58-2.25,1.9-2.44.76-4.31-.93-6.53-1.47-4.21-1.03-8.47,2.2-12.82,1.7-3.21-.37-6.19-2.75-9.24-1.86-3.33.97-3.99,5.2-8.19,5.22-2,0-3.77-1.03-4.6-2.53-1.73-3.13.09-6.31,2.27-8.93,1.81-2.17,3.96-4.23,4.91-6.75,1.3-3.48.06-7.28-1.98-10.52s-4.86-6.09-7.01-9.28-3.65-6.89-2.71-10.44c0-.04.02-.07.03-.11.79-2.92,6.13-4.9,7.12-2.02.36,1.04.57,3.93,1.05,5.04.84,1.98,3.82,4.08,6.56,3.74,4.35-.54,1.56-3.06.43-5.05-2.66-4.68-1.64-10.77,3.36-14.16Z"/>
  <path class="cls-7" d="M153.27,345.63c5.74-3.9,15.36-3.04,19.94,1.78,2.81,2.96,3.61,7.32,1.26,10.54-1.87,2.57-5.62,4.57-5.43,7.56,3.47.41,7.04.86,10.05,2.34s5.32,4.29,4.75,7.12c-.43,2.1-2.39,4.38-4.66,5.41-2.27,1.03-4.84,2.02-7.41,2.35,4.59,4.04,8.19,7.72,10.54,12.9.8,1.76,1.47,3.67.58,5.51-.41.85-1.2,1.58-2.25,1.9-2.44.76-4.31-.93-6.53-1.47-4.21-1.03-8.47,2.2-12.82,1.7-3.21-.37-6.19-2.75-9.24-1.86-3.33.97-3.99,5.2-8.19,5.22-2,0-3.77-1.03-4.6-2.53-1.73-3.13.09-6.31,2.27-8.93,1.81-2.17,3.96-4.23,4.91-6.75,1.3-3.48.06-7.28-1.98-10.52s-4.86-6.09-7.01-9.28-3.65-6.89-2.71-10.44c0-.04.02-.07.03-.11.79-2.92,6.13-4.9,7.12-2.02.36,1.04.57,3.93,1.05,5.04.84,1.98,3.82,4.08,6.56,3.74,4.35-.54,1.56-3.06.43-5.05-2.66-4.68-1.64-10.77,3.36-14.16Z"/>
  <text class="cls-3" transform="translate(184.05 434.2)"><tspan class="cls-24" x="0" y="0">Buy 5</tspan><tspan class="cls-12" x="46.1" y="0"> </tspan><tspan class="cls-24" x="50.09" y="0">Tic</tspan><tspan class="cls-28" x="75.69" y="0">k</tspan><tspan class="cls-24" x="85.69" y="0">ets Get 1 F</tspan><tspan class="cls-11" x="175.43" y="0">r</tspan><tspan class="cls-24" x="182.26" y="0">ee!</tspan></text>
</svg>