<?xml version="1.0" encoding="UTF-8"?>
<svg id="Layer_1" data-name="Layer 1" xmlns="http://www.w3.org/2000/svg" viewBox="0 0 576 576">
  <defs>
    <style>
      .cls-1, .cls-2, .cls-3, .cls-4, .cls-5, .cls-6, .cls-7, .cls-8, .cls-9, .cls-10 {
        stroke-miterlimit: 10;
      }

      .cls-1, .cls-2, .cls-3, .cls-5, .cls-10 {
        fill: #fff;
      }

      .cls-1, .cls-3, .cls-9 {
        stroke-width: .75px;
      }

      .cls-1, .cls-4, .cls-7, .cls-8, .cls-10 {
        stroke: #231f20;
      }

      .cls-2 {
        stroke: #6f272d;
      }

      .cls-2, .cls-4, .cls-7 {
        stroke-width: 3px;
      }

      .cls-3 {
        stroke: #ed1e24;
      }

      .cls-4, .cls-6 {
        fill: #070909;
      }

      .cls-5, .cls-9 {
        stroke: #070909;
      }

      .cls-6 {
        stroke: #7e262c;
        stroke-width: 4px;
      }

      .cls-7 {
        fill: #58595b;
      }

      .cls-8 {
        stroke-width: 8px;
      }

      .cls-8, .cls-9 {
        fill: #6f272d;
      }

      .cls-9 {
        font-family: ShowcardGothic-Reg, 'Showcard Gothic';
        font-size: 40px;
      }

      .cls-10 {
        stroke-width: 2px;
      }
    </style>
  </defs>
  <ellipse class="cls-8" cx="288" cy="283" rx="242.62" ry="236"/>
  <ellipse class="cls-6" cx="288" cy="288" rx="149.75" ry="144"/>
  <circle class="cls-2" cx="288" cy="268" r="10"/>
  <circle class="cls-2" cx="308" cy="288" r="10"/>
  <circle class="cls-2" cx="268.06" cy="288" r="10"/>
  <circle class="cls-2" cx="288" cy="308" r="10"/>
  <circle class="cls-2" cx="288" cy="204.37" r="33.63"/>
  <circle class="cls-1" cx="288" cy="371.63" r="33.63"/>
  <circle class="cls-2" cx="371.5" cy="244.37" r="33.63"/>
  <circle class="cls-2" cx="363.62" cy="331.63" r="33.63"/>
  <circle class="cls-2" cx="212.38" cy="331.63" r="33.63"/>
  <circle class="cls-2" cx="204.5" cy="244.37" r="33.63"/>
  <path class="cls-4" d="M159,308c21.94,15.64,51.24,13.1,75,23.62s44.53,12.55,69,6.38c27.87-7.03,58.23-11.68,84.19-25.86,30.69-16.77,57.81-19.14,95.81-24.14,25.75-3.39,23.2-7.39,35.73-14.25,12.53-6.87,20.76,1.12,12.2-12.56,8.26.01,5.23,17.61,6.43,27.84,3.19,27.21,5.48,58.41-9.26,78.4-8.51,11.54-21.48,26.92-34.01,29.07-12.54,2.15-28.54,6.7-41.08,8.76-64.13,10.56-116.87,62.12-180.75,50.89-46.25-8.14-67.75-10.14-109.25-32.14-28.02-14.85-64.25-41.65-89-61.48-9.46-7.58-19.2-15.49-25.52-27.1-8.99-16.52-24.22-106.49,4.25-96.67,15.31,5.28,38.8,25.02,52.71,34.93,15.56,11.09,37.99,23.23,53.55,34.32Z"/>
  <path class="cls-7" d="M41.62,241.62c25.72,16.73,55.43,35.94,81.17,52.82,14.84,9.51,29.88,21.07,46.09,29.45,8.58,4.29,17.86,7.17,27.06,9.9,12.73,3.72,26.32,7.91,38.65,11.95,13.98,4.31,28.44,9.06,42.89,9.56,15.91.42,31.64-4.15,46.92-8.18,15.77-4.14,31.8-6.76,47.09-12.16,8.9-3.11,17.05-7.05,25.57-10.96,14.29-6.59,29.01-11.72,44.08-15.42,17.42-4.54,35.53-6.5,52.9-10.39,12.41-3.22,25.65-7.7,35.28-16.67,9.7-9.86,14.05-28.12,1.31-27.52-6.41.34-18.78,14.32-25.55,16.64-15.38,5.52-31.56,8.58-47.7,11.1-22.44,3.64-45.49,9.53-66.24,18.67-16.93,7.86-34.98,13.62-53.19,17.41-16.09,3.45-30.9,7.53-47.2,7.43-20.26.49-39.68-7.52-58.61-14.33-20.65-8.3-42.75-11.32-62.76-21.12-17.29-8.95-34.23-20.62-50.18-31.24-15.94-10.83-32.32-21.67-47.49-33.32-20.28-15.99-24.91.16-29.34,19.14"/>
  <path class="cls-7" d="M48.92,365.25c23.05,17.12,49.53,37.55,73.32,54.72,15.03,10.22,30.03,21.47,46.29,29.75,17.42,8.29,35.94,12.01,54.4,18.25,11.45,3.68,22.86,7.48,34.77,10.24,24.29,6.73,47.32-.42,70.82-6.52,15.07-3.76,30.04-6.43,44.53-11.85,12.52-4.58,23.75-10.69,36.29-15.56,15.76-6.3,32.05-10.6,48.79-13.83,13.13-2.72,27.27-3.98,39.91-8.19,12.8-4.64,26.31-17.94,32.6-30.26,3.52-6.55,4.91-9.92,6.59-16.45.9-3.44,1.42-6.34,1.64-8.49.22-2.13,1.36-28.71.87-29.07-.75-.61-1.27,10.81-4.03,14.22-4.3,5.31-9.57,14.74-14.69,19.41-10.55,9.49-24.21,21.93-38,25.37-17.53,4.19-38.61,7.52-56,12-12.47,2.99-22.26,11.19-33.89,16.09-8.63,3.63-17.01,7.41-25.96,10.41-13.05,4.46-26.18,7.28-39.54,10.23-14.66,3.33-28.75,5.97-43.6,5.08-15.64-.59-30.92-6.38-45.71-11.57-14.27-5.41-29.39-10.24-44.01-14.19-24.89-6.24-46.19-21.08-67.5-35.06-19.21-13.34-39.35-25.43-57.2-40.62-5.05-4.47-9.83-9.81-14.09-14.85-2.47-3.02-9.55-14.94-10.11-16.51-11.81-32.87.55,23.91,4.3,47.42"/>
  <rect class="cls-10" x="47.72" y="229.23" width="26.96" height="16.62" rx="7.5" ry="7.5" transform="translate(126.97 1.22) rotate(30)"/>
  <rect class="cls-10" x="76.34" y="245.75" width="26.96" height="16.62" rx="7.5" ry="7.5" transform="translate(139.07 -10.87) rotate(30)"/>
  <rect class="cls-10" x="102.51" y="263.5" width="26.96" height="16.62" rx="7.5" ry="7.5" transform="translate(151.44 -21.58) rotate(30)"/>
  <rect class="cls-10" x="132.29" y="283.63" width="26.96" height="16.62" rx="7.5" ry="7.5" transform="translate(165.5 -33.77) rotate(30)"/>
  <rect class="cls-10" x="162.07" y="300.88" width="26.96" height="16.62" rx="7.5" ry="7.5" transform="translate(178.11 -46.35) rotate(30)"/>
  <rect class="cls-10" x="194.08" y="312.07" width="26.96" height="16.62" rx="7.5" ry="7.5" transform="translate(102.01 -46.47) rotate(16.89)"/>
  <rect class="cls-10" x="225.17" y="322.09" width="26.96" height="16.62" rx="7.5" ry="7.5" transform="translate(67.84 -39.66) rotate(11.06)"/>
  <rect class="cls-10" x="258.18" y="331.53" width="26.96" height="16.62" rx="8.31" ry="8.31" transform="translate(70.26 -45.81) rotate(11.06)"/>
  <rect class="cls-10" x="294.04" y="329.69" width="26.96" height="16.62" rx="7.5" ry="7.5" transform="translate(-47.2 49.93) rotate(-8.62)"/>
  <rect class="cls-10" x="330.05" y="320.49" width="26.96" height="16.62" rx="7.5" ry="7.5" transform="translate(-45.42 55.23) rotate(-8.62)"/>
  <rect class="cls-10" x="361.37" y="310.92" width="26.96" height="16.62" rx="7.5" ry="7.5" transform="translate(-62.96 93.97) rotate(-13.19)"/>
  <rect class="cls-10" x="392.69" y="298.89" width="26.96" height="16.62" rx="7.5" ry="7.5" transform="translate(-89.11 188.68) rotate(-23.64)"/>
  <rect class="cls-10" x="424.01" y="288.25" width="26.96" height="16.62" rx="7.5" ry="7.5" transform="translate(-56.13 107.67) rotate(-13.19)"/>
  <rect class="cls-10" x="456.05" y="283.63" width="26.96" height="16.62" rx="7.5" ry="7.5" transform="translate(-54.23 114.86) rotate(-13.19)"/>
  <rect class="cls-10" x="488.12" y="274.69" width="26.96" height="16.62" rx="7.5" ry="7.5" transform="translate(-71.39 224.92) rotate(-23.64)"/>
  <rect class="cls-10" x="517.68" y="261.43" width="17.6" height="17.6" rx="7.5" ry="7.5" transform="translate(-60.74 343.54) rotate(-34.29)"/>
  <rect class="cls-10" x="50.55" y="353.49" width="26.96" height="16.62" rx="7.5" ry="7.5" transform="translate(189.48 16.46) rotate(30)"/>
  <rect class="cls-10" x="76.34" y="372.63" width="26.96" height="16.62" rx="7.5" ry="7.5" transform="translate(202.5 6.13) rotate(30)"/>
  <rect class="cls-10" x="102.51" y="390.88" width="26.96" height="16.62" rx="7.5" ry="7.5" transform="translate(215.13 -4.51) rotate(30)"/>
  <rect class="cls-10" x="130.44" y="407" width="26.96" height="16.62" rx="7.5" ry="7.5" transform="translate(226.94 -16.32) rotate(30)"/>
  <rect class="cls-10" x="157.4" y="423.69" width="26.96" height="16.62" rx="7.5" ry="7.5" transform="translate(221.8 -29.77) rotate(27.87)"/>
  <rect class="cls-10" x="187.1" y="436.58" width="26.96" height="16.62" rx="7.5" ry="7.5" transform="translate(137.87 -39.08) rotate(16.89)"/>
  <rect class="cls-10" x="219.47" y="445.67" width="26.96" height="16.62" rx="7.5" ry="7.5" transform="translate(118.72 -43.33) rotate(14.23)"/>
  <rect class="cls-10" x="251.91" y="453.9" width="26.96" height="16.62" rx="7.5" ry="7.5" transform="translate(55.71 -27.79) rotate(6.7)"/>
  <rect class="cls-10" x="284.52" y="455.43" width="26.96" height="16.62" rx="7.5" ry="7.5"/>
  <rect class="cls-10" x="317.13" y="449.42" width="26.96" height="16.62" rx="7.5" ry="7.5" transform="translate(-64.9 54.75) rotate(-8.62)"/>
  <rect class="cls-10" x="351.55" y="440.22" width="26.96" height="16.62" rx="7.5" ry="7.5" transform="translate(-112.06 121.71) rotate(-16.45)"/>
  <rect class="cls-10" x="382.43" y="428.11" width="26.96" height="16.62" rx="7.5" ry="7.5" transform="translate(-89.15 101.87) rotate(-13.19)"/>
  <rect class="cls-10" x="413.36" y="418.19" width="26.96" height="16.62" rx="7.5" ry="7.5" transform="translate(-86.07 108.67) rotate(-13.19)"/>
  <rect class="cls-10" x="445.8" y="409.41" width="26.96" height="16.62" rx="7.5" ry="7.5" transform="translate(-83.21 115.84) rotate(-13.19)"/>
  <rect class="cls-10" x="477.14" y="402.07" width="26.96" height="16.62" rx="7.5" ry="7.5" transform="translate(-96.12 155.71) rotate(-16.45)"/>
  <rect class="cls-10" x="503.7" y="383.82" width="26.96" height="16.62" rx="7.5" ry="7.5" transform="translate(-131.85 390.35) rotate(-37.01)"/>
  <g>
    <path class="cls-5" d="M113.22,184.44c3.09,3.19,4.66,6.99,4.95,11.34.28,4.36-.75,8.54-2.87,12.65,1.46,1.78,2.89,3.56,4.27,5.36-1.98,3.75-3.83,7.58-5.61,11.48-3.46-3.93-7.15-7.8-11.07-11.59-3.05-2.9-7.37-6.81-13.37-11.56.47-2.59,1.53-6.07,3.43-10.39,2.33-5.27,5.42-8.68,8.88-10.19,3.94-1.72,7.87-.73,11.37,2.89ZM110.96,195.74c-1.66-1.72-3.23-1.3-4.53,1.28-.15.31-.3.64-.42.99,1.87,1.97,3.68,3.95,5.45,5.94,1.6-3.4,1.53-6.12-.49-8.21Z"/>
    <path class="cls-5" d="M115.22,157.19c4.35,5.12,8.54,10.26,12.53,15.4,2.59,3.3,6.08,7.77,10.19,13.43-2.87,3.48-5.53,7.02-8.02,10.62-7.6-8.49-16.08-16.82-25.34-24.85,3.16-4.88,6.7-9.75,10.64-14.61Z"/>
    <path class="cls-5" d="M149.87,143.91c-.97.45-2.09,1.23-3.33,2.31-2.3,2.02-3.7,4.25-4.24,6.62-.62,2.67-.02,5.13,1.65,7.41,1.31,1.78,2.93,2.68,4.89,2.75,1.97.07,3.88-.74,5.84-2.44,1.34-1.16,2.42-2.58,3.25-4.27.21.67.63,1.88,1.24,3.63.43,1.14.89,2.31,1.38,3.5-1.16,1.84-2.89,3.74-5.12,5.75-4.05,3.65-8.16,5.49-12.73,5.6-4.95.1-9.19-2-13.01-6.51-3.51-4.17-5.35-8.92-5.03-14.41.34-5.84,3.16-11.64,8.94-17.12,2.78-2.63,5.02-4.37,6.55-5.22,3.34,4.16,6.58,8.29,9.72,12.41Z"/>
    <path class="cls-5" d="M177.4,104.21c2.1,5.52,4.16,10.89,6.16,16.12-.77.33-2,.88-3.65,1.69-1,.54-2.6,1.45-4.77,2.75.35.99,1.27,3.34,2.72,6.96,1.46,3.47,3.55,8.54,6.15,15.02-3.95,2.41-7.76,4.9-11.41,7.48-1.69-2.75-4.41-7.06-8.38-13.02-1.42-2.04-2.83-4.03-4.25-5.98-1.25,1-2.49,2.01-3.7,3.02-1.06.99-2.1,1.97-3.12,2.96-3.04-4.25-6.19-8.53-9.42-12.85,9.97-8.45,21.24-16.67,33.69-24.16Z"/>
    <path class="cls-5" d="M225.93,81.84c1.14,6.54,2.26,12.84,3.34,18.93.92,5.21,2.54,12.9,4.68,22.5-4.85,3.1-9.78,5.57-14.89,7.51-6.3,2.39-11.22,3.39-15.14,2.78-3.31-.52-6.24-2.31-8.87-5.49-1.52-1.83-3.75-5.46-6.83-11.05-2.88-5.16-5.44-10.07-7.62-14.71,6.56-3.81,13.42-7.41,20.57-10.71.69,2.5,1.86,6.54,3.45,11.93.91,2.99,2.29,7.14,4.09,12.32,1.31,3.96,2.55,6.4,3.74,7.44,1.26,1.11,3.08,1.17,5.51.24.69-.26,1.42-.72,2.18-1.38-.98-3.5-2.67-9.04-5.24-17.01-1.37-3.97-3.41-9.5-6.24-16.86,5.61-2.36,11.37-4.52,17.25-6.45Z"/>
    <path class="cls-5" d="M281.64,89.33c.06,3.67-1.11,6.9-3.41,9.77-2.03,2.51-4.56,4.39-7.59,5.71.71.78,2.44,2.38,5.09,4.85,1.32,1.12,3.31,2.58,5.92,4.42-1.02.36-3.27,1.24-6.67,2.75-2.37,1.11-4.58,2.22-6.61,3.33-.67-.57-2.16-2.05-4.57-4.45-1.12-1.23-2.81-3.32-5.14-6.31-.02,0-.04,0-.07.01.25,3.23.5,6.4.74,9.51-5.98.96-11.88,2.18-17.68,3.64-.94-3.72-2.45-9.87-4.69-19.02-1.27-5.42-3.23-12.99-6.1-23.26,6.51-2.59,12.68-4.43,18.35-5.61,21.28-4.28,32.42,2.72,32.42,14.64ZM265.82,97.07c-.14-1.83-1.19-3.05-3.14-3.59-1.44-.39-3.21-.39-5.29.04.29,3.35.59,6.63.87,9.86,1.88-.31,3.52-.9,4.94-1.81,1.88-1.18,2.77-2.66,2.62-4.5Z"/>
    <path class="cls-5" d="M325.96,74.37c-1.47,6.5-2.86,12.78-4.18,18.86-.86-.25-2.71-.75-5.6-1.41-1.98-.41-4.16-.75-6.54-1.02-.34,1.87-.68,3.72-1,5.55,2.57.29,6.77.64,12.55,1.36-.35.67-.92,1.93-1.71,3.75-.46,1.11-.91,2.39-1.34,3.84-.64-.22-2.25-.61-4.86-1.11-1.22-.19-3.03-.41-5.45-.59-.28,2.09-.56,4.15-.84,6.19,1.67.12,4.75.25,9.21.6.85.05,2.25.01,4.22-.09-.25.54-.84,1.83-1.74,3.87-.44,1.05-.98,2.38-1.61,3.97-9.58-1.27-19.31-1.84-29.02-1.7-.29-7.04-.6-14.36-.92-22.03-.18-5.27-.63-12.74-1.44-23.03,13.5-.35,27.04.68,40.26,3Z"/>
    <path class="cls-5" d="M399.47,101.46c-2.27,3.98-5.83,10.49-10.31,19.15-2.02,4.17-4.84,9.88-8.23,16.93-4.59-2.25-9.32-4.36-14.19-6.32.82-2.74,1.67-5.51,2.52-8.33-.39-.05-1.19-.1-2.41-.16-1.45-.05-2.48-.02-3.11.05-.19-1.22-.38-2.45-.58-3.69-.11-.8-.35-1.96-.72-3.49-1.43,4.23-2.82,8.37-4.16,12.42-5.53-1.95-11.2-3.69-16.99-5.19,1.11-6.35,2.28-12.93,3.49-19.77,1-5.34,2.21-12.95,3.66-23.49,8.51,2.47,16.78,5.44,24.76,8.81-3.46,8.65-6.72,16.95-9.77,24.93,1.48.69,2.91,1.28,4.3,1.78.89.33,2.09.74,3.61,1.25,2.28-8.16,4.68-16.69,7.19-25.63,7.26,3.28,14.25,6.89,20.92,10.72Z"/>
    <path class="cls-5" d="M429.06,145.16c-3.31,4.74-7.3,7.59-12.06,8.83-4.99,1.28-9.61.4-14.3-2.66-4.84-3.16-8.03-7.38-9.48-13.1-1.37-5.38-.94-10.87,1.69-16.48,2.8-5.98,7.01-9.8,12.57-10.9,5.22-1.04,10.77.47,16.14,4.42,5.28,3.88,8.35,8.65,9.36,13.95,1.06,5.64-.41,10.9-3.91,15.93ZM415.49,140.14c2.4-3.93,2.12-7.08-1.09-9.32-3.13-2.18-5.95-1.11-8.2,3.05-.91,1.66-1.32,3.46-1.29,5.39.04,2.17.7,3.66,1.98,4.51,1.25.83,2.78.79,4.65-.12,1.7-.82,3.02-1.98,3.95-3.51Z"/>
    <path class="cls-5" d="M469.36,161.44c-3.83,3.47-7.53,6.98-11.09,10.53-3.04,3.03-7.48,7.77-12.83,14.26-3.49-2.16-6.74-4.83-9.8-8.04-3.78-3.96-6.33-7.68-7.37-11.35-.88-3.11-.73-6.53.6-10.3.76-2.17,2.57-5.79,5.59-10.93,2.78-4.77,5.53-9.08,8.23-12.87,4.95,4.46,9.56,8.97,13.8,13.51-1.51,1.55-3.92,4.11-7.12,7.69-1.77,2-4.19,4.92-7.15,8.73-2.28,2.86-3.52,5.03-3.83,6.5-.32,1.56.26,3.09,1.69,4.61.41.43.95.8,1.63,1.1,1.98-2.46,5.1-6.45,9.64-11.96,2.23-2.82,5.32-6.79,9.42-11.95,3.07,3.49,5.93,6.98,8.59,10.48Z"/>
    <path class="cls-5" d="M473.5,194.53c-.37-1.22-.71-2.09-1.01-2.62-.37-.66-.88-1.09-1.54-1.29-.8-.24-1.53-.02-2.2.64-.51.51-1.15,2.1-1.89,4.75-.74,2.65-1.69,4.59-2.84,5.83-1.67,1.8-3.49,2.42-5.55,1.89-1.97-.5-3.7-1.91-5.26-4.24-1.44-2.15-2.44-3.83-2.94-5.1.36-.64.93-1.68,1.73-3.14.41-.81.96-1.91,1.65-3.28.77,1.74,1.32,2.86,1.66,3.36,1.36,1.96,2.55,2.33,3.7,1.08.83-.9,1.32-2.11,1.45-3.63,0-2.26.01-4.53,0-6.82-.04-4.42,1.1-7.95,3.64-10.55,2.64-2.7,5.66-3.49,8.85-2.29,2.77,1.04,5.39,3.46,7.6,7.2,1.26,2.12,2.34,4.73,3.22,7.82-3.57,3.42-7,6.88-10.28,10.38Z"/>
    <path class="cls-5" d="M494.77,210.86c-3.65,2.74-7.15,5.55-10.48,8.42-.14-.61-.46-1.91-1-3.88-.39-1.32-.86-2.72-1.43-4.2-1.05.86-2.08,1.72-3.1,2.59.63,1.63,1.73,4.22,3.19,7.84-.43.21-1.21.65-2.33,1.33-.67.42-1.43.96-2.25,1.62-.11-.5-.44-1.66-1.04-3.47-.3-.82-.77-2-1.44-3.52-1.12,1.09-2.23,2.18-3.31,3.28.49,1.07,1.43,2.99,2.77,5.81.26.53.75,1.32,1.46,2.39-.33.2-1.12.7-2.36,1.51-.63.43-1.42.99-2.36,1.68-2.83-6.57-5.8-12.92-9.11-19.07,3.56-4.43,7.37-8.8,11.42-13.11,2.8-2.93,6.74-7.11,12.19-12.44,3.71,7.6,6.67,15.3,9.18,23.21Z"/>
  </g>
  <g>
    <path class="cls-3" d="M170.61,340.57c-2.23,4.91-5.78,12.93-10.75,24.04-2.26,5.32-5.47,12.71-9.69,22.13-5.05-2.27-10.06-4.65-15.03-7.15,1.39-3.41,2.78-6.83,4.17-10.24-.39-.05-1.21-.11-2.46-.19-1.48-.07-2.56-.08-3.23,0,.07-1.48.15-2.96.23-4.43.07-.95.1-2.33.09-4.14-2.41,4.88-4.82,9.75-7.25,14.62-5.42-2.9-10.79-5.95-16.09-9.14,3.48-7.25,6.96-14.49,10.45-21.73,2.77-5.63,6.45-13.59,11.1-23.86,5.78,3.53,11.65,6.86,17.59,10-4.71,9.19-9.48,18.36-14.3,27.49,1.28.85,2.55,1.57,3.81,2.15.8.39,1.91.86,3.33,1.41,3.71-9.66,7.44-19.31,11.19-28.96,5.55,2.83,11.16,5.5,16.83,8.01Z"/>
    <path class="cls-3" d="M208.74,379.91c-1.86,7.55-5.23,13.46-10.3,17.56-5.31,4.28-11.17,5.41-17.28,3.31-6.3-2.16-10.49-6.77-12.4-13.58-1.8-6.42-1.26-13.27,1.37-20.56,2.82-7.79,6.81-13.15,11.83-16.25,4.73-2.91,9.64-3.43,14.93-1.61,5.2,1.79,8.86,5.26,11.12,10.6,2.38,5.67,2.71,12.5.74,20.53ZM193.2,381.29c1.68-5.89.72-9.4-2.83-10.62-3.46-1.19-6.11,1.11-7.99,6.97-.75,2.35-.98,4.71-.68,7.08.34,2.67,1.31,4.28,2.89,4.82,1.53.53,3.25-.19,5.1-2.15,1.69-1.78,2.86-3.82,3.51-6.11Z"/>
    <path class="cls-3" d="M257.72,384.55c-.46,4.04-1.9,7.49-4.37,10.31-2.18,2.46-4.76,4.07-7.73,4.8.45,1.08,1.62,3.38,3.57,6.89.99,1.62,2.56,3.79,4.75,6.49-1.04.24-3.34.89-6.94,1.89-2.53.76-4.93,1.49-7.21,2.2-.5-.89-1.56-3.16-3.13-6.81-.69-1.83-1.65-4.88-2.8-9.15-.02,0-.04,0-.06-.01-.76,3.79-1.53,7.57-2.3,11.36-5.94-1.16-11.85-2.46-17.73-3.9.8-4.75,2.19-12.58,4.16-23.47,1.22-6.4,2.74-15.3,4.62-26.7,5.18.65,9.84,1.37,14.03,2.24,15.43,3.13,22.59,10.53,21.14,23.87ZM243.29,389.59c.31-2.08-.25-3.69-1.69-4.87-1.06-.86-2.46-1.41-4.22-1.66-.69,3.71-1.38,7.42-2.08,11.13,1.67.32,3.23.2,4.67-.38,1.9-.74,3-2.15,3.31-4.23Z"/>
    <path class="cls-3" d="M305.8,387.53c.04,4.07-.96,7.69-3.07,10.83-1.86,2.74-4.23,4.69-7.09,5.83.58,1.01,2.03,3.13,4.4,6.34,1.19,1.47,3.02,3.41,5.53,5.78-1,.38-3.21,1.35-6.66,2.84-2.42,1.1-4.72,2.16-6.89,3.18-.6-.81-1.95-2.91-3.96-6.31-.92-1.72-2.24-4.61-3.92-8.68-.02,0-.04,0-.06,0-.28,3.86-.58,7.72-.87,11.58-6.04-.32-12.07-.79-18.09-1.4.21-4.82.61-12.77,1.22-23.84.42-6.51.82-15.55,1.27-27.11,5.22-.08,9.95-.01,14.21.27,15.72.96,23.76,7.3,23.98,20.72ZM292.08,394.54c.05-2.1-.71-3.63-2.28-4.59-1.16-.71-2.62-1.06-4.4-1.06-.22,3.78-.45,7.55-.68,11.33,1.7.09,3.24-.25,4.6-1.02,1.8-.99,2.71-2.55,2.77-4.65Z"/>
    <path class="cls-3" d="M354.7,389.06c1.03,7.73.05,14.56-3.17,20.42-3.38,6.13-8.41,9.57-14.85,10.15-6.64.59-12.2-1.94-16.45-7.43-4.01-5.18-6.02-11.71-6.24-19.51-.24-8.34,1.5-14.93,5.01-19.85,3.32-4.63,7.68-7.12,13.27-7.62,5.49-.49,10.17,1.21,14.23,5.21,4.29,4.25,7.1,10.42,8.2,18.63ZM340.74,396.71c-.59-6.12-2.77-8.97-6.51-8.63-3.65.32-5.27,3.53-4.86,9.71.16,2.47.81,4.74,1.96,6.8,1.29,2.32,2.78,3.41,4.44,3.26,1.62-.15,2.94-1.51,3.95-4.07.92-2.34,1.26-4.7,1.03-7.07Z"/>
    <path class="cls-3" d="M402.2,373.11c1.04,3.92.96,7.69-.33,11.32-1.14,3.17-2.98,5.73-5.5,7.63.82.81,2.75,2.45,5.86,4.87,1.52,1.08,3.79,2.44,6.83,4.02-.89.65-2.8,2.21-5.81,4.62-2.09,1.75-4.08,3.41-5.95,5.01-.79-.62-2.62-2.26-5.42-4.98-1.32-1.4-3.33-3.82-5.97-7.28-.02,0-.04,0-.06.01.67,3.81,1.34,7.61,2.01,11.42-5.97,1.38-11.97,2.62-17.98,3.7-.99-4.71-2.56-12.5-4.7-23.35-1.2-6.4-3.04-15.24-5.46-26.52,5.07-1.53,9.7-2.79,13.94-3.72,15.59-3.48,25.03.35,28.55,13.24ZM390.51,383.74c-.46-2.04-1.59-3.3-3.36-3.79-1.31-.36-2.82-.28-4.56.21.71,3.71,1.42,7.41,2.13,11.12,1.68-.39,3.1-1.16,4.24-2.28,1.51-1.46,2.02-3.22,1.55-5.27Z"/>
    <path class="cls-3" d="M438.13,362.15c-1.54.24-2.66.5-3.39.8-.9.36-1.59,1.03-2.11,1.99-.61,1.17-.7,2.39-.25,3.68.35.99,1.84,2.59,4.53,4.75,2.69,2.16,4.49,4.4,5.35,6.78,1.25,3.45,1,6.81-.82,10.07-1.72,3.12-4.46,5.4-8.15,6.76-3.4,1.25-6,1.89-7.77,1.96-.48-.9-1.28-2.37-2.39-4.41-.64-1.08-1.51-2.52-2.6-4.31,2.41-.19,4-.43,4.77-.71,3.03-1.07,4.16-2.82,3.39-5.18-.55-1.72-1.65-3.03-3.28-3.96-2.52-1.1-5.02-2.23-7.51-3.41-4.81-2.26-7.85-5.91-9.26-10.79-1.47-5.1-.88-9.5,1.64-13.23,2.2-3.26,5.64-5.72,10.36-7.53,2.68-1.02,5.83-1.76,9.47-2.26,2.66,6.34,5.34,12.68,8.01,19.01Z"/>
    <path class="cls-3" d="M457.81,330.01c1.22,5.21,2.67,11.12,4.33,17.74.71,3.03,1.42,6.07,2.11,9.12.78,3.41,1.41,5.67,1.9,6.79.14.32.28.57.4.75-.09.07-1.06.71-2.94,1.91-1.04.69-2.14,1.44-3.31,2.27-1.85-3.07-4.93-8.07-9.17-15.05-2.07-3.11-5.38-8.22-9.83-15.38,5.55-2.56,11.05-5.28,16.5-8.16ZM473.63,372.84c.7,1.56.64,3.21-.22,4.96-.85,1.75-2.17,3.06-3.94,3.93-1.89.93-3.75,1.17-5.56.73-1.81-.44-3.03-1.48-3.7-3.11-.67-1.65-.57-3.29.29-4.95.86-1.66,2.24-2.94,4.15-3.88,1.74-.86,3.46-1.1,5.18-.72,1.79.41,3.05,1.42,3.78,3.04Z"/>
  </g>
  <text class="cls-9" transform="translate(261.77 218.72)"><tspan x="0" y="0">of</tspan></text>
</svg>